<svg xmlns="http://www.w3.org/2000/svg" xmlns:svg="http://www.w3.org/2000/svg" id="svg6362" width="37" height="48" preserveAspectRatio="xMidYMid" version="1.1" viewBox="0 0 1 1"><metadata id="metadata6370"/><g id="g6490" transform="matrix(0.00684697,0,0,0.00684697,-6.1111465,0.10667553)" style="fill:#fff"><g id="g5195" transform="matrix(1.25,0,0,-1.25,1034.1443,29.83254)" style="fill:#fff"><path id="path5197" style="fill:#fff;fill-opacity:1;fill-rule:nonzero;stroke:none" d="m 0,0 c -0.088,2.047 -0.806,3.768 -1.654,5.325 -0.894,1.646 -2.153,2.876 -4.087,3.694 -1.642,0.869 -3.363,1.303 -5.725,1.303 l -74.588,0 -5.334,-16.061 67.537,0 -10.67,-32.693 -4.903,0 -39.227,0 -23.388,0 -5.324,-16.07 74.904,0 c 2.053,0 4.172,0.469 6.561,1.32 2.15,1.139 4.493,2.379 6.55,3.993 1.741,1.328 3.688,3.29 5.296,5.35 1.333,2.052 2.53,4.104 3.314,6.24 l 9.912,31.037 C -0.005,-4.422 0.342,-2.047 0,0"/></g><g id="g5199" transform="matrix(1.25,0,0,-1.25,953.20565,48.156415)" style="fill:#fff"><path id="path5201" style="fill:#fff;fill-opacity:1;fill-rule:nonzero;stroke:none" d="m 0,0 -39.837,0 -5.281,-14.854 40.119,0 L 0,0 z"/></g></g></svg>